<?xml version="1.0" ?><svg style="enable-background:new 0 0 48 48;" version="1.1" viewBox="0 0 48 48" xml:space="preserve" xmlns="http://www.w3.org/2000/svg" xmlns:xlink="http://www.w3.org/1999/xlink"><g id="Icons"><g><g><path d="M41.91501,22.82109c-0.03936-2.30837-0.13568-4.77536-0.21408-5.48192     c-0.41462-3.73749-1.60373-5.54314-4.05493-6.15637c-1.25312-0.3136-4.71658-0.47093-12.07316-0.54859     c-6.81418-0.07189-11.32181,0.07808-14.00916,0.35371c-2.73568,0.28043-4.2353,1.62667-4.87306,4.37482     c-0.70421,3.03467-0.848,11.83935-0.26219,16.06164c0.16683,1.20309,0.69088,2.78048,1.15776,3.48522     c1.15552,1.74464,2.85504,2.19136,9.13151,2.40085c4.22528,0.14112,14.36564,0.0657,17.4626-0.11904     c2.85141-0.17024,3.51146-0.28384,4.52032-0.77813C41.3724,35.10427,42.07352,32.1398,41.91501,22.82109z" style="fill:#D02726;"/></g><polygon points="20.35793,18.28284 20.35793,29.00136 29.98154,23.6421   " style="fill:#FFFFFF;"/><g><path d="     M41.91501,22.82109c-0.03936-2.30837-0.13568-4.77536-0.21408-5.48192c-0.41462-3.73749-1.60373-5.54314-4.05493-6.15637     c-1.25312-0.3136-4.71658-0.47093-12.07316-0.54859c-6.81418-0.07189-11.32181,0.07808-14.00916,0.35371     c-2.73568,0.28043-4.2353,1.62667-4.87306,4.37482c-0.70421,3.03467-0.848,11.83935-0.26219,16.06164     c0.16683,1.20309,0.69088,2.78048,1.15776,3.48522c1.15552,1.74464,2.85504,2.19136,9.13151,2.40085     c4.22528,0.14112,14.36564,0.0657,17.4626-0.11904c2.85141-0.17024,3.51146-0.28384,4.52032-0.77813     C41.3724,35.10427,42.07352,32.1398,41.91501,22.82109z" style="fill:none;stroke:#303030;stroke-width:0.7;stroke-linecap:round;stroke-linejoin:round;stroke-miterlimit:10;"/></g><polygon points="    20.35793,18.28284 20.35793,29.00136 29.98154,23.6421   " style="fill:none;stroke:#303030;stroke-width:0.7;stroke-linecap:round;stroke-linejoin:round;stroke-miterlimit:10;"/></g></g></svg>